<svg id="Layer_1" data-name="Layer 1" xmlns="http://www.w3.org/2000/svg" viewBox="0 0 387 87"><defs><style>.cls-1,.cls-2{fill:#0064bf;}.cls-1{fill-rule:evenodd;}</style></defs><path class="cls-1" d="M64.52,79.45a44.9,44.9,0,0,1-7,3.61h23V60.11a40.18,40.18,0,0,1-3.59,7l-4.58-4.57a34.4,34.4,0,0,1-5.41,7,35.13,35.13,0,0,1-7,5.42Z"/><path class="cls-1" d="M64.86,55A25.41,25.41,0,0,1,52.46,67.4l6.25,6.24a33.21,33.21,0,0,0,7-5.38,34.09,34.09,0,0,0,5.38-7Z"/><path class="cls-1" d="M79.3,53.18a39.8,39.8,0,0,0,0-17.51H76.2a35.31,35.31,0,0,1,0,17.48Z"/><path class="cls-1" d="M74.46,53.17a34,34,0,0,0,0-17.5H65.62a25.35,25.35,0,0,1,0,17.51Z"/><path class="cls-1" d="M76.91,21.78a45.62,45.62,0,0,1,3.61,7V5.8l-23,0a46.13,46.13,0,0,1,7,3.62L60,14A35.73,35.73,0,0,1,72.34,26.35Z"/><path class="cls-1" d="M52.48,21.45a25.12,25.12,0,0,1,7.29,5.1,25.67,25.67,0,0,1,5.09,7.28l6.23-6.23a33.21,33.21,0,0,0-5.36-7,33.85,33.85,0,0,0-7-5.4Z"/><path class="cls-1" d="M50.63,7A40.25,40.25,0,0,0,33.12,7l0,3.1a35.66,35.66,0,0,1,17.48,0Z"/><path class="cls-1" d="M50.65,11.86a33.9,33.9,0,0,0-17.52,0v8.85a25.32,25.32,0,0,1,17.5,0Z"/><path class="cls-1" d="M11.44,26.38a35.13,35.13,0,0,1,5.42-7,35.51,35.51,0,0,1,7-5.42L19.26,9.42A40.89,40.89,0,0,1,26.2,5.81H3.25v23a43,43,0,0,1,3.62-7Z"/><path class="cls-1" d="M25.07,15.21a32.25,32.25,0,0,0-7,5.37,33.7,33.7,0,0,0-5.36,7l6.24,6.25A25.34,25.34,0,0,1,31.31,21.46Z"/><path class="cls-1" d="M9.32,35.67a33.62,33.62,0,0,0,0,17.5h8.83a25.32,25.32,0,0,1,0-17.5Z"/><path class="cls-1" d="M4.48,35.67a39.86,39.86,0,0,0,0,17.49h3.1a35.94,35.94,0,0,1,0-17.49Z"/><path class="cls-1" d="M6.87,67.05a40.78,40.78,0,0,1-3.61-7v23h23a42,42,0,0,1-7-3.62l4.59-4.57A34.91,34.91,0,0,1,11.45,62.47Z"/><path class="cls-1" d="M12.67,61.25a33.75,33.75,0,0,0,5.37,7,33.31,33.31,0,0,0,7,5.36l6.26-6.25A25.16,25.16,0,0,1,18.92,55Z"/><path class="cls-1" d="M33.14,68.16a25.52,25.52,0,0,0,17.49,0V77a33.27,33.27,0,0,1-17.49,0Z"/><path class="cls-1" d="M33.15,78.73a35.55,35.55,0,0,0,17.48,0v3.09a39.26,39.26,0,0,1-17.49,0Z"/><path class="cls-2" d="M98.52,5.52h11.8l38.78,53.8V5.52h12.52V83.33H151L111,28V83.33H98.52Z"/><path class="cls-2" d="M197.72,44.09h10.95c9.42,0,15.41-5.12,15.41-13v-.22c0-8.34-5.77-12.89-15.52-12.89H189.4V83.33H176.24V5.52h33.39c9.42,0,16.8,2.89,21.63,7.78a24.06,24.06,0,0,1,6.2,16.79v.22c0,12.78-7.39,20.45-17.87,23.56l20.23,29.46H224.3Z"/><path class="cls-2" d="M251.15,5.52h59.24V17.74H266V38h36.25V50.2H266V71.1h45V83.33H251.15Z"/><path class="cls-2" d="M326.36,5.52h14.82V70.88h41.05V83.33H326.36Z"/></svg>